<?xml version="1.0" standalone="no"?><!DOCTYPE svg PUBLIC "-//W3C//DTD SVG 1.1//EN" "http://www.w3.org/Graphics/SVG/1.1/DTD/svg11.dtd"><svg t="1665369839381" class="icon" viewBox="0 0 1194 1024" version="1.1" xmlns="http://www.w3.org/2000/svg" p-id="2902" xmlns:xlink="http://www.w3.org/1999/xlink" width="233.203125" height="200"><path d="M1022.805333 68.266667c86.613333 2.133333 159.573333 59.733333 166.4 147.029333l0.426667 13.312v159.232c0 48.469333-19.626667 92.416-51.541333 124.16 28.330667 28.16 47.018667 66.048 50.858666 108.202667l0.682667 15.957333v159.232l-0.512 13.312c-6.741333 87.296-79.701333 144.896-166.314667 146.944-88.746667 2.133333-162.474667-54.869333-168.96-146.858667L853.333333 795.306667V683.008h110.933334V795.306667l0.512 8.533333c3.413333 27.306667 23.893333 41.642667 55.381333 40.874667 31.829333-0.853333 54.186667-17.066667 58.026667-41.813334l0.512-7.68V636.245333l-0.597334-8.704a64.512 64.512 0 0 0-55.125333-55.125333l-8.704-0.597333h-43.690667V452.266667h43.690667a64.426667 64.426667 0 0 0 63.829333-55.722667l0.597334-8.704V228.608c0-28.928-23.466667-48.554667-58.538667-49.408-31.488-0.768-51.882667 13.653333-55.381333 40.874667l-0.512 8.533333v112.384H853.333333V228.693333c0-99.84 76.544-162.56 169.472-160.256zM238.933333 72.533333v768h85.333334v110.933334H42.666667v-110.933334h85.333333v-640l-128 59.733334v-119.466667l128-68.266667h110.933333zM589.056 68.266667c86.528 2.133333 159.573333 59.477333 166.314667 146.346666l0.426666 13.226667v126.72a64.853333 64.853333 0 0 1-2.389333 15.530667l-3.84 9.728L540.16 836.778667H759.466667V947.2h-341.333334V836.778667l219.050667-477.866667c5.12-11.093333 7.68-23.04 7.68-35.242667V227.84c0-26.197333-19.370667-44.714667-49.237333-48.469333l-9.301334-0.682667c-31.402667-0.768-51.882667 13.482667-55.381333 40.618667l-0.512 8.533333v111.786667h-110.933333V227.84c0-99.413333 76.544-161.706667 169.557333-159.573333z" p-id="2903" fill="#ffffff"></path></svg>