<?xml version="1.0" standalone="no"?><!DOCTYPE svg PUBLIC "-//W3C//DTD SVG 1.1//EN" "http://www.w3.org/Graphics/SVG/1.1/DTD/svg11.dtd"><svg t="1665625604941" class="icon" viewBox="0 0 1024 1024" version="1.1" xmlns="http://www.w3.org/2000/svg" p-id="2546" xmlns:xlink="http://www.w3.org/1999/xlink" width="200" height="200"><path d="M234.272 32h58.368v180h-58.369V32zM584 32h58.272v180H584V32zM176 332h524.592v60H176v-60z m0 180h291.408v60H176v-60z m352.56 384H32V80h768v381.648C911.169 492.992 992 597.104 992 722c0 150-116.592 270-262.272 270a258.384 258.384 0 0 1-201.12-96z m212.352-443.76V138.32H91.088v699.36h401.28A277.728 277.728 0 0 1 467.409 722c0-150 116.592-270 262.32-270 3.744 0 7.488 0.096 11.184 0.24zM176 692h233.136v60H176v-60z m553.728-180c-110.736 0-204 96-204 210s93.264 210 204 210 204-96 204-210-93.264-210-204-210zM704 560h59.76v204H704V560z m59.76 240v59.76H704V800h59.76z" p-id="2547" fill="#ffffff"></path></svg>