<svg t="1682575785980" class="icon" viewBox="0 0 1024 1024" version="1.1" xmlns="http://www.w3.org/2000/svg" p-id="2971" width="200" height="200"><path d="M972.8 729.8048l-135.68-2.7648-44.544-128.41472L748.032 727.04l-135.68 2.7904 108.10368 82.0992-39.25504 130.1504 111.37536-77.64992L903.9872 942.08l-39.296-130.176z m-290.78016-93.3888a29.53728 29.53728 0 0 0-4.00896-41.56416 381.37856 381.37856 0 0 0-132.1728-69.79072 235.8016 235.8016 0 1 0-224.43008-0.83456A384.48128 384.48128 0 0 0 51.2 891.10016a29.52192 29.52192 0 1 0 59.04384 0 324.03456 324.03456 0 0 1 530.432-250.62912 29.37344 29.37344 0 0 0 41.344-4.03456zM257.536 318.08a176.81408 176.81408 0 1 1 176.80896 177.22368A177.21344 177.21344 0 0 1 257.536 318.08z m0 0" p-id="2972"></path></svg>